<svg width="12" height="12" viewBox="0 0 12 12" fill="none" xmlns="http://www.w3.org/2000/svg">
<g clip-path="url(#clip0_126_92)">
<path d="M11.2787 7.98515C11.2296 7.99312 11.1799 7.9968 11.1302 7.99615L2.66446 7.99615L2.84906 8.08201C3.0295 8.16741 3.19365 8.28365 3.33417 8.42545L5.70818 10.7995C6.02084 11.0979 6.07338 11.5781 5.83267 11.9371C5.55253 12.3197 5.01529 12.4027 4.63268 12.1226C4.60177 12.1 4.57239 12.0753 4.54478 12.0487L0.251816 7.75575C-0.0836792 7.42063 -0.0839744 6.877 0.251145 6.54151C0.25136 6.54129 0.251602 6.54105 0.251816 6.54084L4.54478 2.24787C4.88055 1.91304 5.42417 1.91379 5.75902 2.24956C5.78537 2.27599 5.80998 2.3041 5.83267 2.33373C6.07338 2.69275 6.02084 3.17289 5.70818 3.47136L3.33846 5.84967C3.21249 5.97577 3.06765 6.08151 2.90916 6.16305L2.65159 6.27896L11.083 6.27896C11.5216 6.26268 11.9064 6.56906 11.9888 7.00018C12.0647 7.46825 11.7468 7.90922 11.2787 7.98515Z" fill="white"/>
</g>
<defs>
<clipPath id="clip0_126_92">
<rect width="12" height="12" fill="white" transform="matrix(1 0 0 -1 0 12)"/>
</clipPath>
</defs>
</svg>
