<svg width="59" height="59" viewBox="0 0 59 59" fill="none" xmlns="http://www.w3.org/2000/svg">
<g clip-path="url(#clip0_46_289)">
<path d="M28.9529 4.06009C27.4647 4.32073 26.2524 4.98985 25.044 6.19971C23.2723 7.97364 22.1493 10.4789 21.7841 13.4433C21.6326 14.5909 21.718 16.8161 21.9551 17.9832C22.7089 21.9395 25.0868 25.075 28.0437 26.0476C29.0578 26.3938 30.7868 26.3938 31.8009 26.0476C32.9005 25.6819 33.8292 25.075 34.8006 24.1025C36.5296 22.3519 37.6953 19.8427 38.0411 17.0106C38.7521 11.2181 36.0128 5.62006 31.8243 4.27794C30.9384 4.01729 29.7067 3.93171 28.9529 4.06009ZM31.2647 6.39422C35.0881 7.68966 37.093 13.9373 35.3445 19.1697C34.4586 21.85 32.6441 23.7096 30.5964 24.0986C29.1277 24.3592 27.4453 23.6668 26.2369 22.2819C23.0624 18.6717 23.1052 11.4087 26.3224 7.92696C27.7484 6.37088 29.5629 5.83014 31.2686 6.39033L31.2647 6.39422Z" fill="#B78B49"/>
<path d="M17.1409 28.8758L15.4779 28.9186L15.2409 29.1987C14.8096 29.6966 14.9805 30.603 15.5634 30.8831C15.7149 30.9493 16.255 31.0115 16.7523 31.0115C17.6576 31.0115 17.6576 31.0115 17.6149 31.2293C17.5916 31.3577 17.4634 31.9841 17.3546 32.6337C17.2458 33.2834 17.0942 33.9953 17.0515 34.2131C16.9855 34.4504 16.9855 35.3802 17.0515 36.3956C17.1603 38.5352 17.3973 39.5739 18.1511 41.2389C19.1885 43.5069 19.5343 45.4092 19.445 48.2413C19.3789 49.9919 19.1652 51.5907 18.7534 53.1702C18.5824 53.9054 18.5591 54.0143 18.6873 54.3372C19.0098 55.1153 19.7442 55.2009 20.4785 54.5317C20.8438 54.1855 20.8904 54.0766 21.1468 53.0418C21.4266 51.8086 21.7063 50.0813 21.7063 49.5406V49.2177H29.9747H38.2664V49.5406C38.2664 50.1008 38.5461 51.8553 38.8492 53.0846C39.0668 54.0571 39.1717 54.2944 39.432 54.5745C40.0576 55.2009 40.8774 55.1153 41.2466 54.38C41.4175 54.0338 41.4175 53.991 41.2232 53.1896C40.8347 51.6335 40.5977 49.9919 40.5316 48.3035C40.4461 45.5376 40.7919 43.5497 41.7633 41.4062C42.3462 40.0679 42.6065 39.2665 42.8008 37.905C43.0611 36.0882 42.8862 33.3456 42.3695 31.2488C42.3034 31.0543 42.3462 31.0309 43.3408 30.9882C44.355 30.9648 44.3783 30.9648 44.6775 30.6225C45.0893 30.1673 45.0893 29.5838 44.6775 29.1753L44.3744 28.8719H42.8202C41.9576 28.8719 36.2148 28.8719 30.0369 28.8485C23.8395 28.8252 18.0307 28.8485 17.1253 28.8719L17.1409 28.8758ZM40.2014 31.8362C40.3101 32.2486 40.3956 32.8749 40.4384 33.1783L40.5044 33.7619H29.9902H19.4527V33.5012C19.4527 33.2406 19.8413 31.2332 19.9268 31.0815C19.9501 31.0387 24.4806 31.0154 29.9864 31.0387L40.0265 31.0621L40.1975 31.8401L40.2014 31.8362ZM40.6754 36.7885C40.5666 38.0645 40.2868 39.1887 39.704 40.4414C38.8842 42.2581 38.4956 43.7286 38.278 45.7593C38.212 46.3428 38.1692 46.8602 38.1692 46.9497C38.1692 47.0781 36.9181 47.1014 29.9864 47.1014C23.0546 47.1014 21.8035 47.0781 21.8035 46.9497C21.8035 46.8641 21.7607 46.3428 21.6947 45.7593C21.5004 43.7481 21.1119 42.3009 20.2687 40.4219C19.6859 39.1459 19.4061 38.0645 19.3168 36.7885L19.2507 35.9015H30.0019H40.7531L40.6676 36.7885H40.6754Z" fill="#B78B49"/>
</g>
<defs>
<clipPath id="clip0_46_289">
<rect width="30" height="51" fill="white" transform="translate(15 4)"/>
</clipPath>
</defs>
</svg>
