<svg width="59" height="59" viewBox="0 0 59 59" fill="none" xmlns="http://www.w3.org/2000/svg">
<path fill-rule="evenodd" clip-rule="evenodd" d="M54.0049 44.4985H5.5948C3.0996 44.4985 3.92364 41.9169 4.94941 41.9169H54.1664C55.9219 41.9169 55.8191 44.4985 54.0049 44.4985ZM29.4775 20.1319C32.887 20.1319 35.4435 20.8479 37.9387 21.8367C39.2295 22.3483 40.2263 22.9383 41.2903 23.6489C42.9456 24.7565 42.9344 24.9602 44.1414 25.9615C44.949 26.6313 45.8548 27.7118 46.516 28.5892C48.4179 31.1128 49.8656 34.5138 50.3059 37.7091C50.3804 38.2503 50.4193 39.5668 50.6171 39.9795H8.82306C8.82306 32.5394 13.7363 25.7882 20.2561 22.3667C22.541 21.1676 26.3408 20.1319 29.4781 20.1319H29.4775ZM29.9614 18.1958C28.5737 18.1958 27.5407 17.6071 27.5407 16.0981C27.5407 14.0894 29.8058 13.3254 31.1242 14.4507C32.4519 15.5832 31.6866 18.1958 29.9607 18.1958H29.9614ZM25.6045 15.7751C25.6045 17.9479 25.9631 17.2867 26.2499 18.5181C23.0163 18.59 18.2343 21.0206 15.5967 23.0332C10.5397 26.893 6.88557 33.5889 6.88557 39.9795C5.07137 39.9795 4.19129 39.7217 2.96446 40.8997C1.03423 42.7529 2.04681 46.434 5.59414 46.434H53.8427C58.5259 46.434 58.2761 40.2524 54.4861 39.9814C53.0002 39.8753 52.4069 40.5253 52.3786 39.0236C52.306 35.2389 50.3066 30.5808 48.2887 27.7837C46.5312 25.3478 44.5086 23.494 41.9996 21.809C39.9349 20.422 35.4244 18.5181 33.0268 18.5181C34.423 15.8792 33.6702 13.2588 31.1935 12.2831C28.5519 11.2428 25.6038 13.2186 25.6038 15.7751H25.6045Z" fill="#B78B49"/>
<path fill-rule="evenodd" clip-rule="evenodd" d="M45.6141 32.8801C48.9136 32.8801 43.525 27.297 43.3108 27.1151C41.7418 25.7893 40.4326 24.6917 38.505 23.691C37.6335 23.2388 35.2879 22.2295 34.1573 22.2295C33.4368 22.2295 33.0584 23.2902 33.7934 23.8796C34.3419 24.3193 36.7995 24.6218 39.805 26.7485C41.8506 28.1962 43.4789 29.9682 44.7499 32.1312C44.9516 32.4746 45.1566 32.8807 45.6141 32.8807V32.8801Z" fill="#B78B49"/>
</svg>
