<svg width="59" height="59" viewBox="0 0 59 59" fill="none" xmlns="http://www.w3.org/2000/svg">
<g clip-path="url(#clip0_46_286)">
<path fill-rule="evenodd" clip-rule="evenodd" d="M46.9582 28.7677H49.3375V46.5356H46.9582V28.7677ZM10.6608 28.7677H13.0401V46.5356H10.6608V28.7677ZM31.9833 28.7677H45.4707V31.11H29.5041C29.7955 30.6821 30.2801 30.2986 30.6696 29.9135C30.9111 29.6758 31.6678 28.7662 31.9833 28.7662V28.7677ZM14.5292 28.7677H18.0001C18.3607 28.7677 18.8292 29.5411 19.2139 29.9151C19.6035 30.2954 20.0913 30.6853 20.3794 31.11H14.5276V28.7677H14.5292ZM33.3726 27.3035C33.6672 26.8708 34.4142 26.229 34.8359 25.8154L37.8609 22.936C38.1297 22.6713 39.0908 21.5446 39.4224 21.5446H52.2159C52.4478 21.5446 52.612 21.7062 52.612 21.9344V26.9136C52.612 27.3209 52.2562 27.313 51.8264 27.3114L33.3726 27.3035ZM7.38953 26.9136V21.9344C7.38953 21.7062 7.55373 21.5446 7.78555 21.5446C12.2465 21.5446 10.3501 20.9155 13.8595 24.3511L15.9427 26.4984C16.2051 26.7567 16.5094 26.9263 16.6124 27.3035L8.27656 27.3082C7.81936 27.313 7.38953 27.3526 7.38953 26.912V26.9136ZM13.1415 21.5446H37.1413L27.9876 30.5949C27.0346 31.3794 25.2654 33.2747 24.8436 33.552C24.198 33.1257 22.5624 31.2573 21.8927 30.5981L18.6231 27.2749C18.4074 27.0975 18.4203 27.0673 18.256 26.8566C17.8182 26.294 13.5215 22.1024 13.1415 21.543V21.5446ZM23.7537 18.7127H33.6704C33.6157 19.3672 32.8574 20.0787 32.1829 20.0787H25.2412C24.9369 20.0787 24.462 19.8173 24.2737 19.6651C23.9743 19.4242 23.8133 19.1628 23.7537 18.7127ZM47.0596 17.0535V14.1249H47.4556C47.9305 14.1249 48.1495 14.4546 48.1495 14.9062C48.1495 16.1328 47.8033 16.5622 47.058 17.0535H47.0596ZM45.6719 13.93L45.6429 18.4449C45.6944 19.307 45.1777 20.0803 44.3824 20.0803H41.2094C40.4656 20.0803 39.8217 19.6049 39.8217 18.9092V12.4657H45.6735L45.6155 13.3564C45.6091 13.6163 45.6735 13.556 45.6735 13.93H45.6719ZM38.3326 11.8794V18.3229C38.3326 19.1501 38.4388 19.5383 38.7286 20.0803H34.6621C34.8617 19.3434 36.2623 17.2484 33.9682 17.2484H23.4559C21.1377 17.2484 22.6171 19.5463 22.762 20.0803H9.07665C8.26529 20.0803 7.57305 20.0233 7.00799 20.2895C6.61841 20.4733 6.00183 21.0628 6.00183 21.6413V27.0103C6.00183 28.8977 8.18479 28.7677 9.27467 28.7677V47.2186C9.27467 47.6909 9.58859 47.9999 10.0683 47.9999H13.5392C14.13 47.9999 14.5308 47.8002 14.5308 47.2186V32.4776H21.5724C22.1068 32.4776 24.1047 35.3095 24.6472 35.3095C25.4296 35.3095 25.2058 35.1177 25.7676 34.655C26.4921 34.0575 27.9216 32.4792 28.2178 32.4792H45.4739V47.2202C45.4739 47.8018 45.8747 48.0015 46.4655 48.0015H49.9364C50.4161 48.0015 50.73 47.6925 50.73 47.2202V28.7693C51.8199 28.7693 54.0029 28.8993 54.0029 27.0119V21.6429C54.0029 21.131 53.5087 20.6001 53.111 20.3735C52.4928 20.0201 52.1644 20.0803 51.2259 20.0819C49.7384 20.0835 48.2509 20.0819 46.7634 20.0819C46.9115 19.4591 47.0612 19.448 47.0612 18.6176C48.1929 18.3577 49.5404 16.9521 49.5404 15.4941C49.5404 14.6194 49.6305 13.8334 48.8224 13.1757C48.3893 12.8239 47.8291 12.6638 47.0612 12.6638C47.0612 11.7574 47.2592 11.0046 45.9697 11.0046H39.6221C38.9089 11.0046 38.3326 11.1869 38.3326 11.8826V11.8794Z" fill="#B78B49"/>
</g>
<defs>
<clipPath id="clip0_46_286">
<rect width="48" height="37" fill="white" transform="translate(6 11)"/>
</clipPath>
</defs>
</svg>
