<svg width="59" height="59" viewBox="0 0 59 59" fill="none" xmlns="http://www.w3.org/2000/svg">
<g clip-path="url(#clip0_46_287)">
<path d="M42.2229 26.8811C42.3178 26.9547 42.3705 27.0651 42.3705 27.1834C42.3705 27.2701 42.3415 27.3516 42.2888 27.4199C42.215 27.5145 42.1044 27.5671 41.9858 27.5671C41.9014 27.5671 41.8171 27.5382 41.7486 27.4856C39.6085 25.8246 37.8137 24.1662 36.3563 22.5157C34.8909 20.8547 33.7629 19.1963 32.9644 17.5405C32.8721 17.3487 32.9538 17.12 33.1436 17.028C33.336 16.936 33.5653 17.0175 33.6575 17.2067C34.4271 18.7968 35.5156 20.3974 36.9335 22.0058C38.3593 23.6222 40.1198 25.2464 42.2229 26.8785V26.8811ZM45.3645 33.4385H43.6804L41.9199 50.0382H46.9906L45.3645 33.4385ZM43.7726 32.5738H45.2802L45.1589 31.3281H43.9044L43.7726 32.5738ZM43.7542 30.4607H45.1589C45.4409 24.5946 44.0573 20.3001 41.398 17.2383C39.6507 15.2251 37.3446 13.7323 34.5984 12.6705C34.6933 12.4392 34.7565 12.2026 34.7934 11.9661C34.804 11.8873 34.8145 11.8058 34.8198 11.7269C37.7663 12.8492 40.2437 14.4419 42.1254 16.6101C45.0219 19.9453 46.4951 24.613 46.0945 30.9943L48 50.4745C48.0264 50.7373 47.8313 50.9712 47.5678 50.9975L41.3875 51.0028C41.1213 51.0028 40.9052 50.7872 40.9052 50.5218C40.9052 50.4929 40.9078 50.464 40.9131 50.4351L42.9635 31.0915C37.8928 27.7143 34.2637 24.3607 31.9813 21.0229C31.1801 19.8481 30.5423 18.6733 30.068 17.5011C30.176 17.509 30.2867 17.4853 30.3869 17.4275L30.9482 17.1069C31.3963 18.2291 32.0051 19.354 32.7746 20.4815C35.0227 23.772 38.6439 27.0914 43.7357 30.4529L43.7515 30.4634L43.7542 30.4607ZM13.7225 32.5738H15.23L15.0982 31.3281H13.8437L13.7225 32.5738ZM15.3222 33.4385H13.6382L12.012 50.0382H17.0828L15.3222 33.4385ZM15.2458 30.4607H15.2511L15.2669 30.4502C20.3587 27.0888 23.9799 23.7694 26.228 20.4788C26.958 19.4092 27.5431 18.3421 27.9833 17.2803C28.115 17.2672 28.2468 17.2278 28.368 17.1568L29.2483 16.6522C28.7581 18.1056 28.0175 19.5616 27.0213 21.0203C24.7416 24.3581 21.1125 27.7117 16.0391 31.0889L18.0895 50.4324C18.0948 50.4613 18.0974 50.4903 18.0974 50.5192C18.0974 50.7846 17.8813 51.0001 17.6151 51.0001H11.4797L11.4349 50.9949C11.1871 50.9712 11 50.7662 11 50.5192C11 50.5034 11 50.4876 11.0026 50.4745L12.9081 30.9943C12.5075 24.6156 13.9808 19.9453 16.8772 16.6101C18.7616 14.4366 21.2442 12.8439 24.1987 11.7217C24.2935 12.0266 24.4121 12.3235 24.5465 12.6179C21.7345 13.6849 19.3809 15.1935 17.6046 17.2409C14.9454 20.3028 13.5617 24.5999 13.8437 30.4634H15.2432L15.2458 30.4607ZM29.981 12.5548C29.9678 13.2224 29.9019 13.8899 29.786 14.5575C29.6094 14.2684 29.4433 13.9714 29.3221 13.6849C29.1798 13.3407 29.0981 13.0069 29.164 12.7257L29.1719 12.6941C29.2009 12.5942 29.2536 12.518 29.3195 12.4733L29.3537 12.4576C29.4565 12.405 29.5883 12.3892 29.7227 12.4208L29.7543 12.4313C29.8413 12.4549 29.9151 12.497 29.981 12.5548ZM17.7548 27.4883C17.6863 27.5408 17.6046 27.5697 17.5176 27.5697C17.399 27.5697 17.2857 27.5145 17.2145 27.4225C17.0828 27.2543 17.1144 27.0125 17.2831 26.8838C19.3862 25.2517 21.1467 23.6274 22.5699 22.0111C23.9905 20.4026 25.0789 18.8021 25.8485 17.212C25.9117 17.0806 26.0462 16.9965 26.1937 16.9965C26.4072 16.9965 26.5785 17.1673 26.5785 17.3802C26.5785 17.438 26.5654 17.4958 26.539 17.5458C25.7404 19.2015 24.6124 20.8599 23.1471 22.521C21.6897 24.1715 19.8949 25.8299 17.7522 27.4909L17.7548 27.4883Z" fill="#B78B49"/>
<path fill-rule="evenodd" clip-rule="evenodd" d="M22.3328 35.7617V37.1179C22.3328 37.1993 22.4013 37.2677 22.483 37.2677H28.6316V46.5531C28.5763 46.582 28.5289 46.6241 28.4788 46.6661L23.9352 50.5217H25.7906L28.6316 48.3271V50.5217H30.8349V48.385L33.6207 50.5243H35.4761L30.9324 46.6688C30.9008 46.6425 30.8692 46.6136 30.8376 46.5899V37.2729H36.5197C36.6014 37.2729 36.67 37.2072 36.67 37.1231V35.767H22.338L22.3328 35.7617Z" fill="#B78B49"/>
<path fill-rule="evenodd" clip-rule="evenodd" d="M29.6068 9.88189C30.3395 9.44035 30.8771 9.03298 31.7864 9.16702C33.1647 9.37202 34.1267 10.7781 33.7683 12.0738C33.4863 11.8557 33.1463 11.7006 32.7721 11.6454C32.2028 11.5613 31.818 11.6953 31.4385 11.903C31.1591 11.4693 30.8481 11.1408 30.1655 10.9516L30.0601 10.9227C29.562 10.8096 29.0507 10.8727 28.6237 11.0987C28.1915 11.3274 27.8489 11.7164 27.6908 12.2525L27.6565 12.3839C27.3719 13.6192 28.1072 14.8124 28.7503 15.8137L27.8805 16.3105L27.1189 15.0489C26.2017 13.5298 24.5888 11.4982 25.0184 9.62958C25.3214 8.32074 26.5707 7.76356 27.7461 8.09471C28.7977 8.3917 29.1008 9.03298 29.6068 9.88189Z" fill="#B78B49"/>
<path fill-rule="evenodd" clip-rule="evenodd" d="M31.2486 12.6782C31.7336 12.3839 32.0894 12.1158 32.6929 12.2052C33.8235 12.3734 34.5299 13.7611 33.6812 14.7151C33.4388 14.9858 33.0171 15.2749 32.5664 15.5456C32.0683 15.8452 31.5306 16.1212 31.1485 16.3419L30.1048 16.9359L29.5988 16.1002C28.9926 15.0962 27.9226 13.7505 28.2073 12.5127C28.4076 11.6454 29.2351 11.2774 30.0126 11.4955C30.7084 11.6927 30.9087 12.1158 31.246 12.6809L31.2486 12.6782Z" fill="#B78B49"/>
</g>
<defs>
<clipPath id="clip0_46_287">
<rect width="37" height="43" fill="white" transform="translate(11 8)"/>
</clipPath>
</defs>
</svg>
