<svg width="17" height="17" viewBox="0 0 17 17" fill="none" xmlns="http://www.w3.org/2000/svg">
<g clip-path="url(#clip0_111_53)">
<path d="M15.5834 6.36082V12.75C15.5834 13.5292 14.9459 14.1667 14.1667 14.1667H2.83341C2.05425 14.1667 1.41675 13.5292 1.41675 12.75V4.24999C1.41675 3.47082 2.05425 2.83332 2.83341 2.83332H9.98758C9.94508 3.05999 9.91675 3.30082 9.91675 3.54166C9.91675 4.58999 10.3772 5.51791 11.0997 6.16957L8.50008 7.79166L2.83341 4.24999V5.66666L8.50008 9.20832L12.2542 6.85666C12.6367 6.99832 13.0334 7.08332 13.4584 7.08332C14.2588 7.08332 14.9884 6.80707 15.5834 6.36082ZM11.3334 3.54166C11.3334 4.71749 12.2826 5.66666 13.4584 5.66666C14.6342 5.66666 15.5834 4.71749 15.5834 3.54166C15.5834 2.36582 14.6342 1.41666 13.4584 1.41666C12.2826 1.41666 11.3334 2.36582 11.3334 3.54166Z" fill="black"/>
</g>
<defs>
<clipPath id="clip0_111_53">
<rect width="17" height="17" fill="white"/>
</clipPath>
</defs>
</svg>
