<svg width="20" height="20" viewBox="0 0 20 20" fill="none" xmlns="http://www.w3.org/2000/svg">
<g clip-path="url(#clip0_123_1269)">
<path d="M4.36423 11.9003L3.67877 14.4592L1.17342 14.5122C0.424692 13.1235 0 11.5346 0 9.84615C0 8.21342 0.397077 6.67372 1.10092 5.31799H1.10146L3.33192 5.72692L4.309 7.94399C4.1045 8.54018 3.99304 9.18018 3.99304 9.84615C3.99312 10.5689 4.12404 11.2614 4.36423 11.9003Z" fill="#FBBB00"/>
<path d="M19.5202 8.00677C19.6332 8.60239 19.6922 9.21751 19.6922 9.84616C19.6922 10.5511 19.6181 11.2387 19.4769 11.902C18.9976 14.159 17.7452 16.1299 16.0102 17.5245L16.0097 17.524L13.2003 17.3807L12.8027 14.8985C13.9539 14.2234 14.8536 13.1668 15.3275 11.902H10.0625V8.00677H15.4043H19.5202Z" fill="#518EF8"/>
<path d="M16.0101 17.524L16.0107 17.5245C14.3233 18.8808 12.1799 19.6923 9.84656 19.6923C6.0969 19.6923 2.83687 17.5965 1.17383 14.5122L4.36463 11.9003C5.19613 14.1195 7.33686 15.6992 9.84656 15.6992C10.9253 15.6992 11.9359 15.4076 12.8031 14.8985L16.0101 17.524Z" fill="#28B446"/>
<path d="M16.1316 2.26677L12.9418 4.87815C12.0443 4.31715 10.9834 3.99308 9.84679 3.99308C7.28029 3.99308 5.09952 5.64527 4.30968 7.944L1.1021 5.318H1.10156C2.74025 2.15858 6.04141 0 9.84679 0C12.2358 0 14.4263 0.851 16.1316 2.26677Z" fill="#F14336"/>
</g>
<defs>
<clipPath id="clip0_123_1269">
<rect width="19.6923" height="19.6923" fill="white"/>
</clipPath>
</defs>
</svg>
