<svg width="35" height="36" viewBox="0 0 35 36" fill="none" xmlns="http://www.w3.org/2000/svg">
<path d="M29.5685 15.1688C29.6091 10.2819 25.4471 5.80222 20.2914 5.18206C20.1884 5.17023 20.0768 5.15164 19.9586 5.13137C19.6994 5.08175 19.4366 5.05349 19.1728 5.04688C18.115 5.04688 17.8328 5.79039 17.7584 6.23143C17.6858 6.66233 17.755 7.02564 17.9629 7.30784C18.3127 7.78268 18.9295 7.86717 19.4246 7.93476C19.5682 7.95504 19.7051 7.97362 19.82 7.99897C24.4534 9.03482 26.0131 10.6621 26.7752 15.2567C26.7938 15.3682 26.8023 15.5068 26.8124 15.6538C26.8462 16.203 26.9138 17.3453 28.1423 17.3453C28.2437 17.3453 28.3552 17.3369 28.4701 17.32C29.6124 17.1459 29.5769 16.1016 29.56 15.5997C29.555 15.4578 29.5499 15.3243 29.5634 15.2347C29.5661 15.2123 29.5672 15.1897 29.5668 15.1671L29.5685 15.1688Z" fill="black"/>
<path d="M18.8722 3.38953C19.0108 3.39967 19.1392 3.4098 19.2474 3.42501C26.8566 4.59605 30.3562 8.20041 31.3244 15.8688C31.3413 15.9989 31.3447 16.1577 31.3464 16.325C31.3565 16.9249 31.3768 18.172 32.7151 18.1973H32.7557C33.1764 18.1973 33.5093 18.0706 33.7493 17.8205C34.165 17.3862 34.138 16.739 34.1126 16.2186C34.1075 16.0901 34.1025 15.9702 34.1025 15.8637C34.2005 8.02298 27.4108 0.910578 19.5769 0.646968C19.5431 0.646968 19.5127 0.646968 19.4822 0.652037C19.4514 0.655926 19.4204 0.65762 19.3893 0.657106C19.3099 0.657106 19.2152 0.650347 19.1122 0.643588C18.9905 0.635139 18.8503 0.625 18.7066 0.625C17.4595 0.625 17.223 1.51215 17.1925 2.04106C17.1233 3.26279 18.3044 3.34897 18.8722 3.38953ZM30.9577 25.7795C30.7945 25.6554 30.6328 25.5292 30.4728 25.401C29.6414 24.7318 28.7576 24.1167 27.9042 23.5202L27.372 23.1485C26.277 22.3796 25.2935 22.0061 24.3641 22.0061C23.1103 22.0061 22.0186 22.699 21.1163 24.0626C20.7175 24.6676 20.2325 24.9616 19.636 24.9616C19.2217 24.9471 18.8151 24.8452 18.443 24.6625C14.9113 23.0606 12.3867 20.6036 10.9436 17.3609C10.2457 15.7927 10.4722 14.7687 11.699 13.9339C12.3969 13.4608 13.693 12.5804 13.6034 10.8923C13.4986 8.97773 9.27241 3.21379 7.49135 2.55983C6.72996 2.2821 5.89536 2.2797 5.13238 2.55307C3.08602 3.24082 1.61927 4.45073 0.884202 6.0476C0.174483 7.59208 0.208279 9.40525 0.975452 11.2911C3.19755 16.7441 6.32032 21.4992 10.2593 25.4229C14.1137 29.2639 18.8519 32.4086 24.3404 34.7727C24.8356 34.9856 25.3543 35.1022 25.7345 35.1867C25.863 35.2154 25.9745 35.2407 26.0556 35.2627C26.1002 35.2747 26.1462 35.281 26.1925 35.2813H26.2364C28.8184 35.2813 31.9192 32.9223 32.8706 30.2338C33.7054 27.8782 32.1812 26.714 30.9577 25.7795ZM20.0145 9.61985C19.5735 9.62999 18.6525 9.65365 18.3298 10.5898C18.1777 11.0292 18.1963 11.4077 18.3839 11.7203C18.6576 12.1765 19.1831 12.3185 19.6597 12.3962C21.3917 12.6733 22.2823 13.6298 22.4597 15.4091C22.5425 16.2371 23.1018 16.8167 23.8166 16.8167C23.8708 16.8167 23.925 16.8133 23.9788 16.8066C24.8406 16.7052 25.258 16.0715 25.2208 14.9242C25.2343 13.7278 24.6091 12.3692 23.5428 11.2877C22.4749 10.2028 21.1873 9.59113 20.0145 9.61985Z" fill="black"/>
</svg>
