<svg width="35" height="48" viewBox="0 0 35 48" fill="none" xmlns="http://www.w3.org/2000/svg">
<path d="M29.3036 16.7834C29.3036 13.604 28.0336 10.5547 25.7732 8.30652C23.5127 6.0583 20.4468 4.79526 17.25 4.79526C14.0532 4.79526 10.9873 6.0583 8.72684 8.30652C6.46635 10.5547 5.19643 13.604 5.19643 16.7834C5.19643 20.9217 9.19821 28.8459 17.25 39.9278C25.3018 28.8459 29.3036 20.9217 29.3036 16.7834ZM17.25 47.9526C5.9992 33.3511 0.375 22.9621 0.375 16.7834C0.375 12.3322 2.1529 8.06325 5.31757 4.91575C8.48225 1.76825 12.7745 0 17.25 0C21.7255 0 26.0178 1.76825 29.1824 4.91575C32.3471 8.06325 34.125 12.3322 34.125 16.7834C34.125 22.9621 28.5008 33.3511 17.25 47.9526ZM17.25 26.374C14.6926 26.374 12.2399 25.3635 10.4315 23.565C8.62308 21.7664 7.60714 19.327 7.60714 16.7834C7.60714 14.2399 8.62308 11.8005 10.4315 10.0019C12.2399 8.20332 14.6926 7.1929 17.25 7.1929C19.8074 7.1929 22.2601 8.20332 24.0685 10.0019C25.8769 11.8005 26.8929 14.2399 26.8929 16.7834C26.8929 19.327 25.8769 21.7664 24.0685 23.565C22.2601 25.3635 19.8074 26.374 17.25 26.374ZM17.25 21.5787C18.5287 21.5787 19.7551 21.0735 20.6593 20.1742C21.5635 19.2749 22.0714 18.0552 22.0714 16.7834C22.0714 15.5116 21.5635 14.2919 20.6593 13.3927C19.7551 12.4934 18.5287 11.9882 17.25 11.9882C15.9713 11.9882 14.7449 12.4934 13.8407 13.3927C12.9365 14.2919 12.4286 15.5116 12.4286 16.7834C12.4286 18.0552 12.9365 19.2749 13.8407 20.1742C14.7449 21.0735 15.9713 21.5787 17.25 21.5787Z" fill="black"/>
</svg>
