<svg width="13" height="13" viewBox="0 0 13 13" fill="none" xmlns="http://www.w3.org/2000/svg">
<path d="M7.12485 1.03701C7.17823 1.04081 7.22769 1.04461 7.26935 1.05032C10.2003 1.48959 11.5483 2.84163 11.9213 5.71812C11.9278 5.76693 11.9291 5.82652 11.9297 5.88927C11.9336 6.11429 11.9414 6.58209 12.4569 6.59159H12.4726C12.6346 6.59159 12.7629 6.54405 12.8553 6.45024C13.0154 6.28734 13.005 6.04457 12.9952 5.84933C12.9933 5.80116 12.9913 5.75616 12.9913 5.71622C13.0291 2.77507 10.4138 0.107124 7.39627 0.00824028C7.38326 0.00824028 7.37154 0.00824029 7.35983 0.0101419C7.34795 0.0116009 7.33599 0.0122363 7.32403 0.0120435C7.29343 0.0120435 7.25698 0.00950802 7.21728 0.00697255C7.17042 0.00380321 7.11639 0 7.06107 0C6.58071 0 6.48959 0.332781 6.47787 0.531181C6.45118 0.989468 6.90616 1.0218 7.12485 1.03701ZM11.78 9.43576C11.7171 9.3892 11.6549 9.34187 11.5932 9.29377C11.273 9.04276 10.9326 8.81203 10.6039 8.58828L10.3988 8.44883C9.97705 8.16042 9.59823 8.02033 9.24024 8.02033C8.75728 8.02033 8.33681 8.28022 7.98923 8.79175C7.83563 9.01867 7.64882 9.12897 7.41906 9.12897C7.25947 9.12354 7.10287 9.0853 6.95953 9.01677C5.59917 8.41587 4.62674 7.49422 4.07088 6.27783C3.80206 5.6896 3.88928 5.30548 4.36183 4.99234C4.63065 4.81486 5.12988 4.48462 5.09538 3.85138C5.05503 3.13321 3.42715 0.971086 2.74111 0.725779C2.44784 0.621597 2.12636 0.6207 1.83247 0.723243C1.04425 0.981228 0.479274 1.43508 0.196137 2.03408C-0.0772363 2.61344 -0.0642185 3.29358 0.231285 4.00098C1.0872 6.04647 2.29005 7.83017 3.80727 9.30201C5.29195 10.7428 7.11704 11.9224 9.23113 12.8092C9.42184 12.8891 9.62167 12.9328 9.76812 12.9645C9.81758 12.9753 9.86054 12.9848 9.89178 12.993C9.90898 12.9975 9.9267 12.9999 9.94451 13H9.96143C10.956 13 12.1504 12.1151 12.5168 11.1066C12.8384 10.223 12.2513 9.78629 11.78 9.43576ZM7.56485 3.37408C7.39497 3.37788 7.04024 3.38676 6.91592 3.73792C6.85734 3.90273 6.8645 4.04471 6.93675 4.16198C7.04219 4.33312 7.24462 4.38637 7.42817 4.41552C8.09533 4.51948 8.43835 4.87825 8.50669 5.54571C8.53859 5.85631 8.75403 6.07372 9.02936 6.07372C9.05024 6.07369 9.07111 6.07242 9.09184 6.06992C9.42379 6.03189 9.58456 5.79419 9.57024 5.36379C9.57545 4.91501 9.33462 4.40538 8.92391 3.99971C8.51255 3.59276 8.01657 3.3633 7.56485 3.37408Z" fill="black"/>
</svg>
