<svg width="59" height="59" viewBox="0 0 59 59" fill="none" xmlns="http://www.w3.org/2000/svg">
<g clip-path="url(#clip0_46_290)">
<path fill-rule="evenodd" clip-rule="evenodd" d="M11.7627 20.6271C11.6848 19.727 11.9615 19.3019 12.8164 18.9273C13.4719 18.6402 14.2156 18.483 14.9322 18.2548C16.5842 17.7286 17.3137 17.278 17.8958 15.6791C18.3609 14.4025 18.6125 12.4259 19.6681 11.9138C20.6749 11.4254 22.8183 12.3939 24.4201 12.4559C25.901 12.5135 26.7553 11.715 27.6675 10.8603C27.7974 10.7382 27.8978 10.6283 28.0264 10.5062C28.2567 10.2882 28.489 10.0561 28.7443 9.84451C29.9274 8.86514 30.4754 9.14067 31.4816 10.012C31.8148 10.3009 32.1911 10.7146 32.5301 11.0323C32.6466 11.1416 32.7585 11.2637 32.8839 11.3685L33.2493 11.6926C33.643 11.9963 34.1094 12.2974 34.6054 12.4304C36.5552 12.9526 39.3651 11.0949 40.4414 12.1318C41.3722 13.0294 41.3085 15.4036 42.5771 16.9072C43.3439 17.8162 45.3014 18.1844 46.4401 18.5904C47.1515 18.8442 47.818 19.1446 48.0354 19.7762C48.4227 20.902 47.4378 22.9202 47.4031 24.4992C47.3838 25.3596 47.7414 26.05 48.1197 26.5468C48.2278 26.6887 48.3339 26.7961 48.4323 26.9246C48.5218 27.0409 48.6614 27.195 48.7566 27.289C48.9952 27.5248 49.1921 27.7659 49.4468 28.0017C49.8141 28.3412 50.4581 29.0943 50.6305 29.575C50.9052 30.337 50.3886 30.982 49.9377 31.4998C49.6372 31.845 49.1065 32.3903 48.7546 32.7311C48.6897 32.7937 48.6556 32.85 48.5925 32.9152C48.2342 33.2853 47.7016 33.9642 47.515 34.6195C47.113 36.031 48.011 37.9188 48.1017 39.3725C48.1557 40.2387 47.9061 40.7635 47.1194 41.1439C45.9518 41.7084 44.0727 41.9347 43.0801 42.6539C42.4883 43.0828 42.1918 43.5181 41.8926 44.2469C41.4275 45.3797 41.0596 47.7124 40.1808 48.0678C39.1258 48.4942 37.0789 47.4254 35.4674 47.4305C34.599 47.433 33.9364 47.7898 33.4436 48.1791C33.3021 48.291 33.1959 48.3888 33.0673 48.4917C32.7167 48.771 31.9184 49.5976 31.4674 50.0189C31.4018 50.0803 31.3413 50.111 31.2738 50.1698C31.0699 50.3469 30.7302 50.5936 30.4124 50.6901C29.9956 50.8167 29.6083 50.6946 29.3092 50.5105C27.9795 49.6922 26.9502 47.979 25.3034 47.5711C23.4558 47.1134 20.5514 48.7742 19.36 47.8403C18.1294 46.8756 18.3442 43.5552 16.5185 42.3898C16.2599 42.2249 15.9209 42.0523 15.5877 41.9181C14.3629 41.4265 12.1628 41.1535 11.8032 40.153C11.5781 39.5265 11.91 38.3963 12.067 37.796C12.2542 37.0807 12.4877 36.2285 12.4671 35.4301C12.4304 33.9981 11.2165 32.9388 10.3314 32.0394C9.99491 31.6974 9.33489 31.0677 9.18886 30.4246C9.11488 30.0966 9.15605 29.4842 9.27699 29.2061C9.82444 27.9397 11.7948 26.8843 12.3294 25.3155C12.8196 23.8765 11.8894 22.0687 11.7646 20.6271H11.7627ZM52.0001 29.738V30.298C51.8566 30.624 51.9962 30.8861 51.3445 31.7779L51.019 32.1871C50.9122 32.3271 50.8016 32.4293 50.6819 32.5623L50.1564 33.1172C49.8071 33.5033 49.2616 34.071 49.0023 34.4916C48.7842 34.8458 48.6871 35.1399 48.7212 35.6609C48.8563 37.7142 50.6324 40.637 47.9563 42.1603C46.6794 42.8878 44.5681 43.1045 43.7839 43.7655C42.8543 44.5487 42.7379 46.4524 42.0734 47.8179C41.331 49.3432 40.2696 49.7664 38.139 49.2972C37.3934 49.1329 36.5539 48.8452 35.7878 48.7723C34.8833 48.6867 34.3352 49.0702 33.7505 49.6283L33.0203 50.3481C32.8968 50.4504 32.7572 50.5732 32.6421 50.6812C32.5687 50.7502 32.5192 50.7982 32.4459 50.8538C32.3745 50.9081 32.3262 50.9689 32.2522 51.027C32.1294 51.1236 31.9859 51.2418 31.8482 51.3358C31.7717 51.3882 31.7131 51.4259 31.6282 51.4854C31.0216 51.9099 30.4819 51.9265 30.3262 51.9987H29.8186C29.6598 51.9284 29.093 51.892 28.543 51.5001C28.4626 51.4426 28.3983 51.3972 28.3249 51.3511C28.1718 51.2546 28.0477 51.1248 27.9119 51.0277L26.3995 49.643C26.1647 49.411 25.8997 49.2115 25.5986 49.0172C25.2609 48.7985 24.9219 48.7097 24.4201 48.7416C22.8286 48.8433 21.0435 49.799 19.4488 49.3087C18.7154 49.0836 18.1782 48.5499 17.8791 47.9809C17.7048 47.6498 17.5658 47.3621 17.4301 46.9817C17.3014 46.6218 17.203 46.2613 17.0911 45.8751C16.5089 43.8672 16.3674 43.4587 14.3468 42.8527C13.6006 42.6289 12.8492 42.4314 12.1776 42.1201C11.5395 41.8234 10.9766 41.3689 10.7263 40.6977C10.1409 39.1251 11.122 37.4042 11.2641 35.8629C11.3587 34.8381 10.8267 34.367 10.3809 33.8683C9.67777 33.082 8.86979 32.407 8.36738 31.5369C8.02514 30.945 8.06889 30.6375 8.00134 30.4642V29.5155C8.16603 29.1607 8.01614 28.7299 8.98751 27.6322C9.41209 27.1528 9.59092 26.9533 10.0316 26.5161C10.3461 26.2035 10.7965 25.7298 11.0319 25.3545C11.2468 25.0119 11.3278 24.6948 11.2879 24.193C11.1091 21.951 9.27957 19.3665 12.2111 17.9102C13.5015 17.269 15.5652 17.1169 16.2863 16.2078C17.3529 14.8634 17.1348 11.5098 19.4365 10.7216C20.2606 10.4397 21.1715 10.5611 22.0007 10.7491C23.0827 10.9946 24.6639 11.5789 25.5883 11.0131C25.901 10.822 26.177 10.611 26.4105 10.3872L27.9087 8.98852C28.0721 8.84916 28.5777 8.48158 28.754 8.38505C28.8949 8.3077 29.0705 8.21948 29.2378 8.15555C29.3883 8.09802 29.7241 8.04368 29.8193 7.99829H30.451C30.4722 8.01044 30.4568 8.00596 30.507 8.02258C30.5327 8.03089 30.5578 8.03665 30.5822 8.04176C30.6395 8.05391 30.6729 8.0603 30.7315 8.07692C31.7498 8.35884 32.662 9.3382 33.4127 10.0631L34.1667 10.758C34.6414 11.1646 35.0679 11.3436 35.7685 11.279C37.8193 11.0885 40.7167 9.31519 42.0798 12.222C42.7366 13.622 42.8627 15.4969 43.8129 16.2513C44.6704 16.9321 46.5256 17.1066 47.9782 17.8642C48.5301 18.1518 49.0711 18.7067 49.2963 19.4202C49.7858 20.9723 48.8254 22.8281 48.7238 24.3611C48.689 24.8878 48.7636 25.1563 49.0062 25.5297C49.2873 25.9644 49.3227 25.9701 49.6385 26.3435C49.8598 26.6049 50.103 26.8402 50.3268 27.0806L50.6774 27.443C50.8029 27.5753 50.8897 27.6917 51.0242 27.8317C51.1303 27.9423 51.2416 28.1034 51.3381 28.23C51.5729 28.5375 51.7228 28.7772 51.8624 29.1524C51.9357 29.3493 51.946 29.5833 52.002 29.7367L52.0001 29.738Z" fill="#B78B49"/>
<path fill-rule="evenodd" clip-rule="evenodd" d="M18.1828 30.7793C18.0856 28.9215 18.4099 27.3157 19.0126 25.7738C19.2905 25.0623 19.6508 24.4128 20.0181 23.8387L20.6254 22.975C20.8647 22.6867 21.0506 22.424 21.2963 22.1753L21.8502 21.6262C22.3835 21.1512 22.4948 21.0655 23.0615 20.6289C23.1413 20.5675 23.2011 20.5388 23.2802 20.48C23.4385 20.363 23.5678 20.2952 23.7248 20.1897C25.1882 19.2046 27.3909 18.5334 29.3311 18.4253C31.7865 18.2892 33.8476 18.8677 35.8521 19.9679C36.6312 20.3956 37.7518 21.2637 38.3571 21.8787C38.4838 22.0078 38.5874 22.1344 38.7129 22.2597C38.9579 22.5058 39.1593 22.7865 39.3774 23.0645C40.7527 24.8161 41.6167 27.1105 41.7569 29.495C41.9338 32.5098 40.8808 35.5048 38.9869 37.7147C38.4266 38.3681 37.782 38.9786 37.0892 39.4957C33.7466 41.9876 29.5208 42.5604 25.5697 41.0262C24.4337 40.5851 23.2474 39.8819 22.3526 39.0904L21.9551 38.7523C21.4121 38.2869 20.3397 37.0243 19.9525 36.3429C19.7756 36.0309 19.5942 35.7503 19.4192 35.4057C18.7547 34.0997 18.2735 32.4842 18.1841 30.7799L18.1828 30.7793ZM29.1477 17.18C27.277 17.2945 25.4449 17.8315 24.0207 18.5807C23.1812 19.0224 22.8068 19.2622 22.0335 19.8388C20.8808 20.698 20.103 21.5738 19.2461 22.7283C18.6762 23.4961 18.1866 24.4895 17.8129 25.3825C17.1439 26.9814 16.8068 29.0206 16.929 30.9634C17.0712 33.2213 17.7634 35.196 18.9206 37.0678C19.1715 37.4744 19.3594 37.6821 19.5961 38.0235C19.654 38.1066 19.71 38.1635 19.7679 38.2428C19.8219 38.3176 19.8907 38.4083 19.9486 38.4755C20.2503 38.822 21.095 39.6843 21.3664 39.9074C21.4565 39.981 21.4919 40.0078 21.5877 40.0999C21.8541 40.353 22.6845 40.9162 23.003 41.1233C25.1715 42.5368 28.0361 43.2713 30.7836 43.1032C32.7617 42.9823 34.3693 42.4632 35.9074 41.7147C36.4247 41.4628 37.4468 40.8408 37.8991 40.4623C38.0483 40.337 38.2156 40.2328 38.3513 40.1094C38.6775 39.8135 38.8891 39.6396 39.2024 39.3283L39.9885 38.4819C40.1101 38.3514 40.2169 38.1763 40.3449 38.0356C40.4826 37.8848 40.9193 37.2398 41.0203 37.078C42.4427 34.7869 43.1921 32.201 43.0107 29.3358C42.891 27.4429 42.3635 25.6875 41.6064 24.2402C41.3536 23.7569 40.7129 22.6771 40.3494 22.2591C40.0831 21.9528 39.919 21.7144 39.5954 21.3807C39.4571 21.2381 39.3471 21.1096 39.2043 20.9671C38.9148 20.6769 38.6517 20.4544 38.3532 20.1853C38.2741 20.1137 38.2143 20.083 38.1326 20.0152C37.7415 19.6905 37.3658 19.4386 36.9361 19.1643C34.6936 17.7337 31.9608 17.0074 29.1464 17.1794L29.1477 17.18Z" fill="#B78B49"/>
<path fill-rule="evenodd" clip-rule="evenodd" d="M27.7086 35.6041C27.5645 35.4896 27.394 35.2928 27.2551 35.1572C27.0898 34.9968 26.9431 34.8529 26.7803 34.6893C26.4625 34.3696 26.1493 34.0737 25.8289 33.7553C24.8968 32.829 23.9016 31.8874 22.9875 30.9649C22.7327 30.7073 22.2528 30.3787 22.3841 29.717C22.478 29.2446 22.9367 28.8943 23.5163 28.9742C23.9801 29.0381 24.2091 29.4019 24.5906 29.7848C25.1863 30.3825 25.8881 31.0512 26.46 31.6623C26.6452 31.8599 27.2184 32.4806 27.4365 32.5707C27.9428 32.7798 28.2876 32.2965 28.6247 31.957L30.5069 30.0693C31.1534 29.4485 31.7324 28.8073 32.3956 28.1872C32.7179 27.8862 33.01 27.5659 33.3271 27.2571L35.2113 25.3713C35.4185 25.1648 35.917 24.6016 36.2078 24.4808C37.0666 24.124 37.8321 24.9378 37.5349 25.7088C37.4404 25.9543 37.3001 26.0668 37.1477 26.2183C35.268 28.0811 33.3439 29.9747 31.4867 31.8452C30.8562 32.48 30.2348 33.0975 29.596 33.7246L27.7073 35.6034L27.7086 35.6041ZM27.7337 31.0927C27.5973 31.0544 27.2532 30.6663 27.1509 30.5628L25.4905 28.9128C25.1547 28.5715 24.754 28.1182 24.3024 27.9162C23.1933 27.4195 21.8784 27.8325 21.3175 28.9122C21.0479 29.4319 21.0081 30.1498 21.2171 30.7296C21.4249 31.3056 21.8443 31.6687 22.1666 31.9871L24.368 34.1766C24.5597 34.3633 24.7282 34.5422 24.9212 34.727C25.1142 34.9117 25.295 35.0792 25.4847 35.2665C25.6707 35.45 25.8431 35.6201 26.0328 35.7991L27.1464 36.8922C27.7819 37.4906 28.1563 36.9472 28.5166 36.5949C28.7083 36.4076 28.8807 36.2344 29.0705 36.0452L32.3873 32.7414C33.1277 32.0069 33.8398 31.2781 34.5828 30.5462L37.8688 27.2571C38.1962 26.9324 38.6079 26.5935 38.7816 25.9632C39.3091 24.0499 37.2133 22.4274 35.4597 23.4196C35.1007 23.6228 34.6041 24.1739 34.3094 24.4769L28.8279 29.9836C28.642 30.1715 27.827 30.9662 27.7324 31.0934L27.7337 31.0927Z" fill="#B78B49"/>
</g>
<defs>
<clipPath id="clip0_46_290">
<rect width="44" height="44" fill="white" transform="translate(8 8)"/>
</clipPath>
</defs>
</svg>
