<svg width="85" height="19" viewBox="0 0 85 19" fill="none" xmlns="http://www.w3.org/2000/svg">
<path d="M8.18006 4.16793C8.51683 3.13146 9.98317 3.13146 10.3199 4.16793L11.018 6.31649C11.1687 6.78002 11.6006 7.09385 12.088 7.09385H14.3471C15.4369 7.09385 15.89 8.48842 15.0084 9.12899L13.1807 10.4569C12.7864 10.7433 12.6214 11.2511 12.772 11.7147L13.4701 13.8632C13.8069 14.8997 12.6206 15.7616 11.7389 15.121L9.91126 13.7931C9.51696 13.5067 8.98304 13.5067 8.58874 13.7931L6.76107 15.121C5.87939 15.7616 4.6931 14.8997 5.02987 13.8632L5.72798 11.7147C5.87859 11.2511 5.7136 10.7433 5.3193 10.4569L3.49163 9.12899C2.60995 8.48842 3.06307 7.09385 4.15289 7.09385H6.41201C6.89939 7.09385 7.33134 6.78002 7.48195 6.31649L8.18006 4.16793Z" fill="#FFC804"/>
<path d="M25.0551 4.16793C25.3918 3.13146 26.8582 3.13146 27.1949 4.16793L27.893 6.31649C28.0437 6.78002 28.4756 7.09385 28.963 7.09385H31.2221C32.3119 7.09385 32.765 8.48842 31.8834 9.12899L30.0557 10.4569C29.6614 10.7433 29.4964 11.2511 29.647 11.7147L30.3451 13.8632C30.6819 14.8997 29.4956 15.7616 28.6139 15.121L26.7863 13.7931C26.392 13.5067 25.858 13.5067 25.4637 13.7931L23.6361 15.121C22.7544 15.7616 21.5681 14.8997 21.9049 13.8632L22.603 11.7147C22.7536 11.2511 22.5886 10.7433 22.1943 10.4569L20.3666 9.12899C19.485 8.48842 19.9381 7.09385 21.0279 7.09385H23.287C23.7744 7.09385 24.2063 6.78002 24.357 6.31649L25.0551 4.16793Z" fill="#FFC804"/>
<path d="M41.3741 3.95533C41.7229 2.94482 43.1521 2.94482 43.5009 3.95533L44.3228 6.33597C44.4794 6.78952 44.9064 7.09385 45.3862 7.09385H47.8937C49 7.09385 49.4419 8.52306 48.5287 9.14749L46.6198 10.4528C46.2014 10.7389 46.026 11.2695 46.1914 11.7486L46.9478 13.9397C47.3015 14.9643 46.1441 15.8473 45.2494 15.2355L43.0725 13.7469C42.6896 13.4851 42.1854 13.4851 41.8025 13.7469L39.6256 15.2355C38.7309 15.8473 37.5735 14.9643 37.9272 13.9397L38.6836 11.7486C38.849 11.2695 38.6736 10.7389 38.2552 10.4528L36.3463 9.14749C35.4331 8.52306 35.875 7.09385 36.9813 7.09385H39.4888C39.9686 7.09385 40.3956 6.78952 40.5522 6.33597L41.3741 3.95533Z" fill="#FFC804"/>
<path d="M57.6801 4.16793C58.0168 3.13146 59.4832 3.13146 59.8199 4.16793L60.518 6.31649C60.6687 6.78002 61.1006 7.09385 61.588 7.09385H63.8471C64.9369 7.09385 65.39 8.48842 64.5084 9.12899L62.6807 10.4569C62.2864 10.7433 62.1214 11.2511 62.272 11.7147L62.9701 13.8632C63.3069 14.8997 62.1206 15.7616 61.2389 15.121L59.4113 13.7931C59.017 13.5067 58.483 13.5067 58.0887 13.7931L56.2611 15.121C55.3794 15.7616 54.1931 14.8997 54.5299 13.8632L55.228 11.7147C55.3786 11.2511 55.2136 10.7433 54.8193 10.4569L52.9916 9.12899C52.11 8.48842 52.5631 7.09385 53.6529 7.09385H55.912C56.3994 7.09385 56.8313 6.78002 56.982 6.31649L57.6801 4.16793Z" fill="#FFC804"/>
<path d="M74.5551 4.16793C74.8918 3.13146 76.3582 3.13146 76.6949 4.16793L77.393 6.31649C77.5437 6.78002 77.9756 7.09385 78.463 7.09385H80.7221C81.8119 7.09385 82.265 8.48842 81.3834 9.12899L79.5557 10.4569C79.1614 10.7433 78.9964 11.2511 79.147 11.7147L79.8451 13.8632C80.1819 14.8997 78.9956 15.7616 78.1139 15.121L76.2863 13.7931C75.892 13.5067 75.358 13.5067 74.9637 13.7931L73.1361 15.121C72.2544 15.7616 71.0681 14.8997 71.4049 13.8632L72.103 11.7147C72.2536 11.2511 72.0886 10.7433 71.6943 10.4569L69.8666 9.12899C68.985 8.48842 69.4381 7.09385 70.5279 7.09385H72.787C73.2744 7.09385 73.7063 6.78002 73.857 6.31649L74.5551 4.16793Z" fill="#FFC804"/>
</svg>
