<?xml version="1.0" standalone="no"?>
<!DOCTYPE svg PUBLIC "-//W3C//DTD SVG 20010904//EN"
 "http://www.w3.org/TR/2001/REC-SVG-20010904/DTD/svg10.dtd">
<svg version="1.0" xmlns="http://www.w3.org/2000/svg"
 width="252.000000pt" height="252.000000pt" viewBox="0 0 252.000000 252.000000"
 preserveAspectRatio="xMidYMid meet">
<metadata>
Created by potrace 1.14, written by Peter Selinger 2001-2017
</metadata>
<g transform="translate(0.000000,252.000000) scale(0.100000,-0.100000)"
fill="#000000" stroke="none">
<path d="M1116 1611 c-4 -5 3 -7 14 -4 23 6 26 13 6 13 -8 0 -17 -4 -20 -9z"/>
<path d="M1336 1611 c-4 -5 3 -7 14 -4 23 6 26 13 6 13 -8 0 -17 -4 -20 -9z"/>
<path d="M1180 1606 c0 -2 7 -7 16 -10 8 -3 12 -2 9 4 -6 10 -25 14 -25 6z"/>
<path d="M1420 1592 c19 -39 4 -60 -57 -78 -119 -35 -269 -3 -267 55 0 15 -3
18 -9 12 -16 -16 8 -58 45 -77 21 -11 60 -19 110 -20 148 -5 234 47 182 112
-14 18 -15 18 -4 -4z"/>
<path d="M835 1550 c33 -16 81 -44 107 -60 48 -32 113 -57 103 -39 -4 5 -12 9
-19 9 -7 0 -42 19 -77 41 -65 42 -103 61 -149 73 -14 4 2 -7 35 -24z"/>
<path d="M649 1549 l-24 -20 28 17 c15 9 27 18 27 20 0 8 -8 4 -31 -17z"/>
<path d="M1658 1560 c-7 -14 -136 -92 -160 -97 -16 -3 -28 -9 -28 -14 0 -17
108 30 150 66 8 7 33 22 55 33 36 19 38 21 13 19 -15 -1 -29 -4 -30 -7z"/>
<path d="M730 1556 c0 -3 9 -10 20 -16 11 -6 20 -8 20 -6 0 3 -9 10 -20 16
-11 6 -20 8 -20 6z"/>
<path d="M1758 1544 c-38 -20 -36 -28 2 -9 17 9 30 18 30 20 0 7 -1 6 -32 -11z"/>
<path d="M1873 1540 c11 -39 -37 -67 -62 -36 -10 11 -8 17 6 25 16 9 16 10 2
11 -26 0 -31 -28 -10 -49 23 -23 52 -18 69 10 9 14 10 24 2 37 -8 12 -10 12
-7 2z"/>
<path d="M708 1515 c4 -22 1 -25 -22 -25 -15 0 -29 7 -32 15 -4 8 -10 15 -15
15 -4 0 -6 -7 -2 -16 7 -19 41 -33 64 -27 22 6 31 39 14 53 -9 8 -11 4 -7 -15z"/>
<path d="M1010 1526 c0 -3 14 -12 30 -21 17 -9 30 -13 30 -11 0 3 -13 12 -30
21 -16 9 -30 13 -30 11z"/>
<path d="M1466 1505 c-11 -8 -15 -15 -9 -15 6 0 16 7 23 15 16 19 11 19 -14 0z"/>
<path d="M1695 1500 c-3 -6 1 -7 9 -4 18 7 21 14 7 14 -6 0 -13 -4 -16 -10z"/>
<path d="M1087 1479 c7 -7 15 -10 18 -7 3 3 -2 9 -12 12 -14 6 -15 5 -6 -5z"/>
<path d="M1400 1470 c-9 -6 -10 -10 -3 -10 6 0 15 5 18 10 8 12 4 12 -15 0z"/>
<path d="M1245 1450 c-3 -5 -1 -10 4 -10 6 0 11 5 11 10 0 6 -2 10 -4 10 -3 0
-8 -4 -11 -10z"/>
<path d="M1956 1384 c-9 -8 -16 -27 -17 -42 -3 -73 -4 -77 -24 -77 -16 0 -21
8 -25 45 -5 44 -6 45 -38 43 -35 -1 -72 -27 -72 -49 0 -15 34 -36 44 -27 13
13 6 35 -9 29 -9 -3 -15 0 -15 8 0 13 20 26 41 26 15 0 5 -74 -11 -82 -13 -5
-12 -7 2 -7 14 -1 16 -10 15 -48 -2 -27 -6 -54 -10 -60 -10 -16 -47 -17 -47
-2 0 5 -5 7 -10 4 -18 -11 0 -25 34 -25 52 0 77 26 78 83 0 43 3 47 24 47 21
0 23 -4 21 -32 -4 -41 8 -68 32 -68 16 0 17 7 13 50 -4 42 -2 50 12 50 10 0
14 5 11 10 -4 6 -11 8 -16 5 -11 -8 -12 95 0 114 6 8 16 11 31 6 15 -5 20 -4
16 4 -10 16 -62 13 -80 -5z"/>
<path d="M745 1364 c-6 -2 -8 -41 -5 -101 4 -83 8 -98 23 -101 18 -4 19 1 20
70 0 41 26 63 28 25 3 -51 -1 -90 -12 -103 -15 -18 1 -18 28 1 42 29 38 145
-5 145 -10 0 -23 -5 -30 -12 -8 -8 -10 -4 -8 18 3 30 -9 65 -22 63 -4 0 -11
-2 -17 -5z"/>
<path d="M1528 1363 c-11 -3 -15 -10 -11 -20 3 -8 6 -52 7 -97 1 -74 3 -81 21
-81 18 0 20 7 20 53 -1 42 2 52 16 52 13 0 17 -10 16 -47 0 -27 -4 -54 -10
-61 -16 -21 -1 -24 23 -4 29 23 38 98 16 127 -13 17 -18 18 -35 7 -12 -7 -21
-9 -22 -5 -1 5 -2 20 -3 35 -1 32 -15 46 -38 41z"/>
<path d="M2155 1359 c-11 -4 -14 -8 -7 -8 9 -1 12 -27 12 -97 0 -86 2 -95 18
-92 14 3 17 17 20 99 3 102 -2 114 -43 98z"/>
<path d="M2225 1360 c-11 -5 -14 -9 -7 -9 9 -1 12 -26 12 -91 0 -72 3 -92 15
-97 9 -3 18 -3 21 0 8 8 8 182 0 195 -8 14 -13 14 -41 2z"/>
<path d="M283 1345 c-25 -11 -33 -20 -33 -40 0 -22 4 -26 23 -23 12 2 20 8 17
13 -3 6 -9 9 -13 7 -5 -1 -7 5 -5 15 2 10 11 19 21 21 15 3 17 -6 18 -65 2
-106 2 -108 24 -108 20 0 21 4 24 60 1 28 4 26 33 -28 33 -60 59 -83 84 -73
12 5 11 10 -5 28 -12 12 -21 26 -21 31 0 5 -10 23 -22 39 -17 25 -19 34 -10
49 7 10 12 29 12 42 0 44 -81 61 -147 32z m107 -30 c0 -13 -3 -30 -6 -39 -12
-31 -24 -16 -24 29 0 35 3 43 15 39 8 -4 15 -17 15 -29z"/>
<path d="M1671 1341 c-8 -5 -10 -14 -7 -20 9 -13 33 -15 40 -2 9 14 -18 31
-33 22z"/>
<path d="M696 1305 c5 -12 0 -14 -25 -9 -23 5 -37 2 -51 -11 -20 -18 -27 -60
-11 -69 5 -3 5 -26 0 -52 -5 -26 -7 -49 -5 -51 2 -3 22 -7 44 -10 31 -4 44 -1
61 16 34 34 9 60 -56 61 -13 0 -23 4 -23 9 0 4 10 6 23 4 36 -7 56 17 61 75 4
41 2 52 -9 52 -9 0 -12 -6 -9 -15z m-24 -70 c-2 -14 -8 -28 -12 -30 -13 -8
-23 33 -15 63 6 25 8 26 19 9 7 -9 11 -28 8 -42z m17 -101 c6 -6 -20 -24 -34
-24 -18 0 -38 18 -31 28 6 10 55 7 65 -4z"/>
<path d="M487 1288 c-11 -9 -14 -18 -8 -27 12 -18 32 -5 24 16 -4 11 -2 14 8
11 25 -8 20 -33 -11 -50 -21 -12 -30 -25 -30 -43 0 -30 25 -43 51 -26 12 7 19
7 19 1 0 -13 37 -13 45 -1 3 5 1 12 -4 15 -4 3 -7 24 -6 46 3 46 -14 70 -49
70 -12 0 -30 -6 -39 -12z m39 -94 c-7 -17 -25 -10 -22 9 1 6 6 19 11 27 8 13
10 12 13 -3 2 -10 1 -25 -2 -33z"/>
<path d="M884 1294 c-8 -3 -9 -17 -5 -37 4 -18 6 -42 5 -54 -1 -13 5 -28 12
-34 18 -15 48 -4 37 13 -4 7 -9 31 -9 53 -1 22 -2 46 -3 53 -1 12 -16 15 -37
6z"/>
<path d="M951 1291 c-8 -5 -9 -11 -3 -15 11 -6 10 -65 -1 -83 -10 -15 19 -36
40 -29 16 5 17 14 13 68 -5 64 -18 79 -49 59z"/>
<path d="M1025 1259 c15 -96 59 -129 89 -65 17 36 22 106 7 106 -5 0 -9 -18
-9 -40 -1 -74 -26 -83 -38 -12 -8 38 -13 48 -32 50 -22 3 -23 1 -17 -39z"/>
<path d="M1165 1287 c-10 -8 -15 -19 -11 -25 11 -18 23 -14 29 9 3 12 10 18
16 14 20 -12 11 -32 -19 -45 -33 -14 -47 -44 -31 -64 12 -14 105 -15 118 -2 4
3 1 6 -5 6 -8 0 -12 18 -12 50 0 38 -4 52 -19 60 -26 14 -44 13 -66 -3z m40
-95 c-6 -15 -8 -15 -15 3 -4 12 -3 26 4 34 9 12 12 11 14 -3 2 -9 1 -25 -3
-34z"/>
<path d="M1275 1290 c-3 -5 -2 -10 2 -10 5 0 8 -21 8 -47 -1 -58 3 -73 20 -73
15 0 22 19 24 69 2 41 11 58 22 40 11 -18 9 -91 -4 -107 -18 -22 -1 -23 26 -1
23 17 27 28 27 69 0 58 -18 79 -55 62 -15 -7 -25 -8 -25 -2 0 13 -37 13 -45 0z"/>
<path d="M1433 1293 c-20 -7 -15 -48 7 -68 30 -27 26 -48 -7 -42 -26 5 -26 4
-8 -9 32 -23 65 -16 77 17 4 10 -5 30 -22 51 -27 33 -30 48 -8 48 4 0 7 -4 6
-9 -2 -5 0 -9 5 -10 4 -1 7 1 7 4 0 3 0 10 0 15 0 10 -35 12 -57 3z"/>
<path d="M1655 1291 c-3 -6 -2 -11 2 -11 5 0 9 -26 9 -57 -1 -51 1 -58 19 -58
18 0 20 7 20 65 0 59 -2 65 -22 68 -11 2 -24 -2 -28 -7z"/>
<path d="M2043 1293 c-19 -7 -16 -43 3 -43 10 0 14 6 11 15 -4 8 -1 17 5 21
14 9 29 -17 18 -31 -5 -6 -5 -17 -1 -24 5 -7 7 -21 4 -30 -6 -23 22 -45 44
-36 10 4 13 9 8 11 -6 2 -9 24 -7 47 5 62 -32 92 -85 70z"/>
<path d="M13 1263 c-7 -2 -13 -9 -13 -14 0 -6 5 -7 11 -4 23 15 68 15 108 2
22 -8 38 -11 35 -6 -12 20 -110 35 -141 22z"/>
<path d="M2403 1259 c-18 -5 -33 -12 -33 -15 0 -3 8 -3 18 0 43 13 83 15 109
6 26 -9 27 -9 9 5 -22 17 -55 18 -103 4z"/>
<path d="M170 1240 c0 -5 5 -10 11 -10 5 0 7 5 4 10 -3 6 -8 10 -11 10 -2 0
-4 -4 -4 -10z"/>
<path d="M2335 1240 c-3 -5 -1 -10 4 -10 6 0 11 5 11 10 0 6 -2 10 -4 10 -3 0
-8 -4 -11 -10z"/>
<path d="M2032 1228 c-17 -17 -15 -57 3 -64 8 -4 23 -3 32 0 14 6 15 9 4 15
-8 6 -12 19 -9 35 6 28 -9 35 -30 14z"/>
<path d="M2510 1222 c0 -7 -9 -12 -19 -12 -11 0 -22 -4 -25 -9 -3 -4 6 -6 19
-3 26 5 41 19 31 29 -3 4 -6 1 -6 -5z"/>
<path d="M4 1211 c9 -15 46 -20 53 -8 3 7 3 9 -1 5 -5 -4 -19 -3 -33 3 -13 5
-22 5 -19 0z"/>
<path d="M1247 1075 c-4 -8 -2 -17 3 -20 6 -4 10 3 10 14 0 25 -6 27 -13 6z"/>
<path d="M998 1060 c-2 -3 -43 -30 -93 -60 -49 -30 -94 -58 -100 -63 -24 -20
55 18 122 60 41 25 91 52 111 59 l37 13 -37 -2 c-21 -1 -39 -4 -40 -7z"/>
<path d="M1470 1058 c24 -6 74 -29 110 -52 79 -52 105 -66 121 -66 15 0 -80
60 -160 102 -30 15 -68 28 -85 27 -27 -1 -25 -2 14 -11z"/>
<path d="M1105 1040 c-3 -6 1 -7 9 -4 18 7 21 14 7 14 -6 0 -13 -4 -16 -10z"/>
<path d="M1400 1040 c8 -5 20 -10 25 -10 6 0 3 5 -5 10 -8 5 -19 10 -25 10 -5
0 -3 -5 5 -10z"/>
<path d="M659 1027 c-24 -19 -29 -43 -13 -64 15 -17 15 -17 5 2 -13 27 4 55
34 55 18 0 25 -5 25 -20 0 -11 -5 -20 -12 -20 -6 0 -8 -3 -5 -6 7 -7 37 14 37
25 -1 27 -47 46 -71 28z"/>
<path d="M1818 1033 c-33 -9 -28 -65 6 -62 7 0 6 2 -1 6 -7 2 -13 13 -13 24 0
14 7 19 25 19 30 0 47 -27 34 -55 -10 -19 -9 -19 5 -2 8 11 12 26 9 35 -6 18
-33 43 -42 41 -3 -1 -13 -3 -23 -6z"/>
<path d="M1060 1020 c-8 -5 -10 -10 -5 -10 6 0 17 5 25 10 8 5 11 10 5 10 -5
0 -17 -5 -25 -10z"/>
<path d="M1143 1011 c-23 -11 -46 -28 -52 -39 -17 -31 -13 -39 5 -13 9 13 32
29 50 37 45 19 169 18 227 -2 47 -16 62 -36 51 -70 -5 -18 -5 -18 6 -1 19 29
4 61 -37 81 -57 28 -195 31 -250 7z"/>
<path d="M799 999 l-24 -20 28 17 c15 9 27 18 27 20 0 8 -8 4 -31 -17z"/>
<path d="M1472 1004 c10 -10 20 -16 22 -13 3 3 -5 11 -17 18 -21 13 -21 12 -5
-5z"/>
<path d="M1710 1006 c0 -2 8 -10 18 -17 15 -13 16 -12 3 4 -13 16 -21 21 -21
13z"/>
<path d="M1778 958 c5 -5 16 -8 23 -6 8 3 3 7 -10 11 -17 4 -21 3 -13 -5z"/>
<path d="M1100 906 c0 -2 7 -7 16 -10 8 -3 12 -2 9 4 -6 10 -25 14 -25 6z"/>
<path d="M1148 893 c7 -3 16 -2 19 1 4 3 -2 6 -13 5 -11 0 -14 -3 -6 -6z"/>
<path d="M1358 893 c6 -2 18 -2 25 0 6 3 1 5 -13 5 -14 0 -19 -2 -12 -5z"/>
</g>
</svg>
